<svg xmlns="http://www.w3.org/2000/svg" width="430" height="430" style="width:100%;height:100%;transform:translate3d(0,0,0);content-visibility:visible" viewBox="0 0 430 430"><defs><clipPath id="a"><path d="M0 0h430v430H0z"/></clipPath><clipPath id="c"><path d="M0 0h430v430H0z"/></clipPath><clipPath id="b"><path d="M0 0h430v430H0z"/></clipPath></defs><g fill="none" clip-path="url(#a)"><g clip-path="url(#b)" style="display:block"><path class="secondary" style="display:none"/><path stroke="#08A88A" stroke-linecap="round" stroke-linejoin="round" stroke-width="12" d="M-125 0h250M60.104 65 125 .052 60-65" class="secondary" style="display:block" transform="translate(275 215)"/><path stroke="#121331" stroke-linecap="round" stroke-linejoin="round" stroke-width="12" d="M115 80v60c0 11.038-8.962 20-20 20H-95c-11.038 0-20-8.962-20-20v-280c0-11.038 8.962-20 20-20H95c11.038 0 20 8.962 20 20v60" class="primary" style="display:block" transform="translate(175 215)"/></g><g clip-path="url(#c)" style="display:none"><path class="secondary" style="display:none"/><path class="primary" style="display:none"/></g></g></svg>